<?xml version="1.0" standalone="no"?>
<!DOCTYPE svg PUBLIC "-//W3C//DTD SVG 20010904//EN"
 "http://www.w3.org/TR/2001/REC-SVG-20010904/DTD/svg10.dtd">
<svg version="1.0" xmlns="http://www.w3.org/2000/svg"
 width="96.000000pt" height="117.000000pt" viewBox="0 0 96.000000 117.000000"
 preserveAspectRatio="xMidYMid meet">

<g transform="translate(0.000000,117.000000) scale(0.100000,-0.100000)"
fill="#000000" stroke="none">
<path d="M378 916 c-81 -23 -166 -91 -204 -162 -94 -173 -23 -387 156 -472 46
-22 69 -27 140 -27 71 0 94 5 140 27 74 35 135 95 168 165 22 49 27 72 27 143
0 71 -5 94 -27 142 -68 146 -247 228 -400 184z m204 -256 l3 -100 42 55 c38
48 47 55 78 55 19 0 35 -3 35 -7 -1 -5 -27 -37 -60 -73 l-58 -64 44 -49 c43
-48 44 -51 27 -69 -16 -18 -18 -17 -65 29 l-48 47 0 -47 c0 -43 -2 -47 -25
-47 l-25 0 0 185 0 185 25 0 c24 0 24 -1 27 -100z m-272 5 c18 -41 36 -75 39
-75 4 0 23 34 44 75 31 64 41 75 62 75 14 0 25 -4 25 -9 0 -4 -22 -56 -50
-114 -43 -91 -50 -115 -50 -167 l0 -60 -30 0 -30 0 0 68 c0 61 -5 76 -50 165
-28 55 -50 103 -50 108 0 5 13 9 29 9 26 0 31 -7 61 -75z"/>
</g>
</svg>
